# xmcd
#
# Track frame offsets:
#	150
#	13512
#	25783
#	36082
#	44528
#	58461
#	70948
#	78910
#	87628
#	101285
#	111738
#	121867
#	131109
#	145983
#
# Disc length: 2544 seconds
#
# Revision: 1
# Processed by: cddbd v1.5.1PL0 Copyright (c) Steve Scherf et al.
# Submitted via: audiograbber 1.83.01
#
DISCID=c809ee0e
DTITLE=Haystax - Showdown in motor city
DYEAR=1900
DGENRE=Hillbilly
TTITLE0=Bring it on home to me
TTITLE1=Soulman - Orange blossom special
TTITLE2=Hold on I'm coming
TTITLE3=Wildwood flower - Midnight hour
TTITLE4=Big stack of hay
TTITLE5=6345789
TTITLE6=My girl
TTITLE7=Sweet soul music
TTITLE8=Spanish Harlem
TTITLE9=Signed, sealed, delivered (I'm yours)
TTITLE10=Superstition
TTITLE11=Stop in the name of love
TTITLE12=End track
TTITLE13=Data Track
EXTD=
EXTT0=
EXTT1=
EXTT2=
EXTT3=
EXTT4=
EXTT5=
EXTT6=
EXTT7=
EXTT8=
EXTT9=
EXTT10=
EXTT11=
EXTT12=
EXTT13=
PLAYORDER=
